<svg xmlns="http://www.w3.org/2000/svg" viewBox="0 0 154.8 50.4"><style type="text/css">  
	.st0{fill:#16BCC8;}
</style><path d="M107 16.8h1.6c1.3 0 2.4 1.1 2.4 2.4v14.9c0 1.3-1.1 2.4-2.4 2.4H107c-1.3 0-2.4-1.1-2.4-2.4V19.2C104.7 17.9 105.7 16.8 107 16.8z"/><path d="M122.9 21.9v13.7c0 0.4-0.3 0.8-0.8 0.8l0 0h-4.8c-0.4 0-0.8-0.3-0.8-0.8 0 0 0 0 0 0V21.9h-2.8c-0.4 0-0.8-0.4-0.8-0.8 0 0 0 0 0 0v-3.5c0-0.4 0.4-0.8 0.8-0.8l0 0h2.8v-5.6c0-0.4 0.3-0.8 0.8-0.8h4.8c0.4 0 0.8 0.3 0.8 0.8v5.6h3.1c0.5 0 0.8 0.4 0.8 0.8v3.4c0 0.5-0.4 0.8-0.8 0.8H122.9z"/><path d="M100.6 16.9c-2.2 0-4.4 0.8-6.2 2.1V17.7c0-0.4-0.4-0.8-0.8-0.8H88.9C88.4 16.9 88.1 17.2 88.1 17.7v18.1c0 0.4 0.4 0.8 0.8 0.8h4.7c0.4 0 0.8-0.4 0.8-0.8V25c1.6-1.9 3.9-3 6.3-3 0.1 0 0.2 0 0.3 0 0.5 0 1 0 1.4 0.1V17C101.9 16.9 101.2 16.9 100.6 16.9z"/><path d="M144.4 17.4l-3.9 8.7 -4.8-9c-0.2-0.3-0.5-0.5-0.8-0.5l-5 0.1c-0.5 0-0.9 0.4-0.9 1 0 0.1 0 0.3 0.1 0.4l8.2 15.3L132 45.3c-0.2 0.5 0 1 0.5 1.2 0.1 0 0.2 0.1 0.4 0.1h5c0.4 0 0.7-0.2 0.8-0.5L151 18.1c0.2-0.4 0-1-0.5-1.2 -0.1-0.1-0.2-0.1-0.4-0.1l-5 0C144.9 16.9 144.6 17.1 144.4 17.4z"/><path d="M54.1 16.9C51.5 16.6 48.8 17.4 46.7 19.1V17.9c0-0.6-0.4-1-1-1H41.3c-0.5 0-1 0.4-1 1l0 0v27.8c0 0.6 0.5 1 1 1h4.4c0.5 0 1-0.4 1-1V34.6c4.3 3.5 10.6 2.8 14-1.5 3.5-4.3 2.8-10.6-1.5-14C57.8 17.9 56 17.1 54.1 16.9L54.1 16.9zM52.8 31.5c-2.6 0.5-5-1.2-5.6-3.7 -0.5-2.6 1.2-5 3.7-5.6 2.6-0.5 5 1.2 5.6 3.7 0.1 0.6 0.1 1.2 0 1.8C56.2 29.6 54.7 31.1 52.8 31.5L52.8 31.5z"/><path d="M79.9 17.8v1.2c-4.3-3.4-10.6-2.7-14 1.7 -3.4 4.3-2.7 10.6 1.7 14 3.6 2.9 8.7 2.9 12.4 0v1.1c0 0.5 0.4 0.8 0.8 0.8h4.7c0.5 0 0.8-0.4 0.8-0.8v-18c0-0.5-0.4-0.9-0.9-0.9l0 0h-4.4C80.3 16.9 79.9 17.3 79.9 17.8zM75.9 31.5c-2.6 0.5-5-1.2-5.6-3.7 -0.5-2.6 1.2-5 3.7-5.6 2.6-0.5 5 1.2 5.6 3.7 0.1 0.6 0.1 1.2 0 1.8C79.2 29.6 77.7 31.1 75.9 31.5z"/><path d="M10.3 25L31 25.5c0.7 0 1.2 0.6 1.2 1.2 0 0.2 0 0.3-0.1 0.4L30.7 30.4c-0.2 0.4-0.6 0.7-1.1 0.7L8.7 31c-0.7 0-1.2-0.5-1.2-1.2 0-0.2 0-0.3 0.1-0.5l1.6-3.6C9.3 25.3 9.8 25 10.3 25z"/><path class="st0" d="M28.9 30.8L14.3 15.4c-0.3-0.3-0.4-0.8-0.2-1.2l1.5-3.4c0.2-0.6 0.9-0.8 1.4-0.6 0.1 0.1 0.3 0.1 0.4 0.3l14.6 15.4c0.3 0.3 0.4 0.8 0.2 1.2l-1.5 3.4c-0.2 0.6-0.9 0.8-1.4 0.6C29.1 31 29 30.9 28.9 30.8z"/><path d="M6.5 33.5l20.8 0.6c0.7 0 1.2 0.6 1.2 1.3 0 0.2 0 0.3-0.1 0.5L27 39c-0.2 0.4-0.5 0.6-1 0.6L4.7 39.5c-0.6 0-1-0.5-1-1 0-0.1 0-0.3 0.1-0.4l1.7-4C5.6 33.7 6 33.5 6.5 33.5z"/><path class="st0" d="M25.2 39.3L10.7 23.9c-0.3-0.3-0.4-0.8-0.2-1.2l1.5-3.4c0.2-0.6 0.9-0.8 1.4-0.6 0.1 0.1 0.3 0.1 0.4 0.3L28.3 34.4c0.3 0.3 0.4 0.8 0.2 1.2L27 39c-0.2 0.6-0.9 0.8-1.4 0.6C25.5 39.5 25.3 39.4 25.2 39.3z"/></svg>